<svg xmlns="http://www.w3.org/2000/svg" width="28" height="32" viewBox="0 0 28 32">
  <defs>
    <linearGradient id="gp" x1="0.2" y1="0" x2="0.8" y2="1">
      <stop offset="0%" stop-color="#d4a935"/>
      <stop offset="50%" stop-color="#c49a28"/>
      <stop offset="100%" stop-color="#9a7a1e"/>
    </linearGradient>
  </defs>
  <!-- Shadow -->
  <g transform="translate(1,1)" opacity="0.15">
    <path d="M10 1 L10 14 L6.5 10.5 L3 18 L1 17 L4.5 9 L1 9 Z" fill="black" transform="scale(1.6) translate(1,1)"/>
  </g>
  <!-- Pointer finger -->
  <path d="M12 1 C12 1 14 1 14 3 L14 12 L18 12 C20 12 20 14 20 14 L20 15 L22 15 C24 15 24 17 24 17 L24 18 L25 18 C27 18 27 20 27 20 L27 26 C27 28 25 30 23 30 L15 30 C13 30 11 28 11 26 L11 20 L7 14 C5 12 7 10 9 12 L11 14 L11 3 C11 1 12 1 12 1 Z" fill="url(#gp)" stroke="#7a5c14" stroke-width="1" stroke-linejoin="round"/>
  <!-- Highlight -->
  <path d="M12 2 L12 14" stroke="#e0be50" stroke-width="0.8" opacity="0.5" fill="none"/>
</svg>
